# Blender 4.2.1 LTS
# www.blender.org
mtllib Dado10Caras.mtl
o obj_0
v 0.000000 0.000000 6.000000
v -6.000000 0.000000 2.000000
v 6.000000 0.000000 2.000000
v 0.000000 -5.000000 -0.109369
v 3.000000 0.000000 -5.000000
v -4.000000 0.000000 -5.000000
v 0.025894 5.000000 -0.037398
vn -0.3890 -0.7129 0.5835
vn 0.3890 -0.7129 0.5835
vn -0.6671 -0.7201 -0.1906
vn -0.0000 -0.6992 -0.7149
vn 0.6708 -0.6837 -0.2875
vn -0.6642 0.7231 -0.1898
vn -0.0000 0.7044 -0.7098
vn -0.3908 0.7098 0.5861
vn 0.3919 0.7077 0.5878
vn 0.6705 0.6840 -0.2873
vt -0.029401 0.397552
vt 0.331847 0.394503
vt 0.178080 0.672236
vt 0.822666 0.928000
vt 0.661290 0.658262
vt 0.981685 0.654147
vt 0.913423 0.121192
vt 0.631024 0.443414
vt 0.341983 0.126708
vt 0.102023 0.109488
vt 0.528886 0.107376
vt 0.337737 0.409788
vt 0.456630 0.644437
vt 0.742106 0.639160
vt 0.595477 0.974388
vt 0.195081 0.635669
vt 0.547032 0.637350
vt 0.370623 0.986463
vt 0.610328 0.671133
vt 0.429101 0.410273
vt 0.776558 0.412205
vt 0.576814 0.379996
vt 0.383119 0.663388
vt 0.186513 0.379802
vt 0.290379 0.642618
vt 0.014794 0.643446
vt 0.159621 0.948999
vt 0.642132 0.385892
vt 1.005378 0.388947
vt 0.822739 0.668899
s 0
usemtl color_15277357
f 1/1/1 2/2/1 4/3/1
f 4/4/2 3/5/2 1/6/2
f 6/7/3 4/8/3 2/9/3
f 6/10/4 5/11/4 4/12/4
f 5/13/5 3/14/5 4/15/5
f 6/16/6 2/17/6 7/18/6
f 7/19/7 5/20/7 6/21/7
f 1/22/8 7/23/8 2/24/8
f 1/25/9 3/26/9 7/27/9
f 3/28/10 5/29/10 7/30/10
